HIERARCHY
ROOT Pelvis
{
	OFFSET 0.000000 0.000000 0.000000
	CHANNELS 6 Xposition Yposition Zposition Xrotation Yrotation Zrotation
	JOINT LeftUpLeg_virtual
	{
		OFFSET 0.000000 0.000000 0.000000
		CHANNELS 3 Xrotation Yrotation Zrotation
		JOINT LeftUpLeg
		{
			OFFSET 8.479700 -4.795502 -0.379100
			CHANNELS 3 Xrotation Yrotation Zrotation
			JOINT LeftLeg
			{
				OFFSET 0.024144 -32.555107 0.112900
				CHANNELS 3 Xrotation Yrotation Zrotation
				JOINT LeftFoot
				{
					OFFSET -0.024144 -32.638630 -3.012600
					CHANNELS 3 Xrotation Yrotation Zrotation
					JOINT LeftToeBase
					{
						OFFSET 0.970200 -13.225400 11.864200
						CHANNELS 3 Xrotation Yrotation Zrotation
						End Site
						{
							OFFSET 0 0 0
						}
					}
				}
			}
		}
	}
	JOINT RightUpLeg_virtual
	{
		OFFSET 0.000000 0.000000 0.000000
		CHANNELS 3 Xrotation Yrotation Zrotation
		JOINT RightUpLeg
		{
			OFFSET -8.479700 -4.795502 -0.379100
			CHANNELS 3 Xrotation Yrotation Zrotation
			JOINT RightLeg
			{
				OFFSET -0.023144 -32.555092 0.112900
				CHANNELS 3 Xrotation Yrotation Zrotation
				JOINT RightFoot
				{
					OFFSET 0.023144 -32.638641 -3.012700
					CHANNELS 3 Xrotation Yrotation Zrotation
					JOINT RightToeBase
					{
						OFFSET -0.970200 -13.225400 11.864200
						CHANNELS 3 Xrotation Yrotation Zrotation
						End Site
						{
							OFFSET 0 0 0
						}
					}
				}
			}
		}
	}
	JOINT Hips_virtual
	{
		OFFSET 0.000000 0.000000 0.000000
		CHANNELS 3 Xrotation Yrotation Zrotation
		JOINT Hips
		{
			OFFSET -0.000000 -0.000000 -0.000000
			CHANNELS 3 Xrotation Yrotation Zrotation
			JOINT Spine
			{
				OFFSET 0.000000 7.722000 1.166200
				CHANNELS 3 Xrotation Yrotation Zrotation
				JOINT Spine1
				{
					OFFSET 0.000000 12.024101 0.248800
					CHANNELS 3 Xrotation Yrotation Zrotation
					JOINT Spine2
					{
						OFFSET 0.000000 11.502998 -0.491200
						CHANNELS 3 Xrotation Yrotation Zrotation
						JOINT Neck_virtual
						{
							OFFSET 0.000000 0.000000 0.000000
							CHANNELS 3 Xrotation Yrotation Zrotation
							JOINT Neck
							{
								OFFSET 0.000000 18.430702 -3.123100
								CHANNELS 3 Xrotation Yrotation Zrotation
								JOINT Head
								{
									OFFSET 0.000000 9.051102 1.034000
									CHANNELS 3 Xrotation Yrotation Zrotation
									End Site
									{
										OFFSET 0 0 0
									}
								}
							}
						}
						JOINT LeftShoulder_virtual
						{
							OFFSET 0.000000 0.000000 0.000000
							CHANNELS 3 Xrotation Yrotation Zrotation
							JOINT LeftShoulder
							{
								OFFSET 6.197800 13.665199 -4.064700
								CHANNELS 3 Xrotation Yrotation Zrotation
								JOINT LeftArm
								{
									OFFSET 7.778100 -0.187103 -1.709300
									CHANNELS 3 Xrotation Yrotation Zrotation
									JOINT LeftForeArm
									{
										OFFSET 22.049376 0.000000 0.000000
										CHANNELS 3 Xrotation Yrotation Zrotation
										JOINT LeftHand
										{
											OFFSET 23.009392 0.000000 0.000000
											CHANNELS 3 Xrotation Yrotation Zrotation
											End Site
											{
												OFFSET 0 0 0
											}
										}
									}
								}
							}
						}
						JOINT RightShoulder_virtual
						{
							OFFSET 0.000000 0.000000 0.000000
							CHANNELS 3 Xrotation Yrotation Zrotation
							JOINT RightShoulder
							{
								OFFSET -6.197800 13.665199 -4.064700
								CHANNELS 3 Xrotation Yrotation Zrotation
								JOINT RightArm
								{
									OFFSET -7.778100 -0.187103 -1.709300
									CHANNELS 3 Xrotation Yrotation Zrotation
									JOINT RightForeArm
									{
										OFFSET -22.049376 0.000000 0.000000
										CHANNELS 3 Xrotation Yrotation Zrotation
										JOINT RightHand
										{
											OFFSET -23.009392 0.000000 0.000000
											CHANNELS 3 Xrotation Yrotation Zrotation
											End Site
											{
												OFFSET 0 0 0
											}
										}
									}
								}
							}
						}
					}
				}
			}
		}
	}
}
MOTION
Frames: 12
Frame Time: 0.03333333
7.301266 63.285255 41.245777 0.000000 0.000000 0.000000 -14.570189 -41.928370 -8.600990 -45.824309 0.431932 28.452502 58.944041 -6.298932 6.894528 -4.841136 -10.018448 -23.319007 0.000000 0.000000 0.000000 -14.570189 -41.928370 -8.600990 -29.802902 -2.619357 -38.109867 80.856462 8.271795 -10.070756 -9.669819 -8.598821 16.545474 0.000000 0.000000 0.000000 -14.570189 -41.928370 -8.600990 0.000000 0.000001 0.000000 22.976534 5.685516 -9.782832 0.646535 0.929545 0.134783 0.000000 0.000000 0.000000 0.636325 0.960700 0.115374 4.340629 13.104375 0.961782 0.000000 0.000000 0.000000 0.636325 0.960700 0.115374 0.727748 3.026996 -7.324551 -54.688611 2.382182 -44.353435 -179.999950 -66.001423 -179.999964 0.000000 0.000000 0.000000 0.636325 0.960700 0.115374 2.812983 13.874456 -5.932526 -45.155832 21.957429 84.432941 -179.999937 65.497423 179.999923 0.000000 0.000000 0.000000 
6.625797 63.723137 39.929943 0.000000 0.000000 0.000000 -13.782401 -41.841257 -7.606128 -44.784943 0.986886 28.683352 54.668940 -6.806066 6.863812 -2.474306 -10.211092 -24.397917 0.000000 0.000000 0.000000 -13.782401 -41.841257 -7.606128 -28.457734 -3.866543 -37.189069 79.620792 8.809303 -10.062597 -14.813352 -11.592810 17.873811 0.000000 0.000000 0.000000 -13.782401 -41.841257 -7.606128 0.000000 0.000001 0.000000 21.199024 6.369048 -8.693743 1.010368 1.004087 -0.234457 0.000000 0.000000 0.000000 1.004582 1.022899 -0.248461 4.766929 13.065344 0.442461 0.000000 0.000000 0.000000 1.004582 1.022899 -0.248461 0.722453 3.377171 -7.482012 -53.816078 2.392655 -44.340618 -179.999964 -65.511459 -179.999964 0.000000 0.000000 0.000000 1.004582 1.022899 -0.248461 2.844844 14.234619 -6.010196 -45.524020 21.500539 84.730191 -179.999923 65.590259 179.999923 0.000000 0.000000 0.000000 
5.980707 64.101540 38.561348 0.000000 0.000000 0.000000 -12.717028 -41.503122 -6.493311 -44.068001 1.430815 28.725655 50.447012 -7.205872 6.777960 -0.112565 -10.705557 -25.306971 0.000000 0.000000 0.000000 -12.717028 -41.503122 -6.493311 -26.969106 -5.259417 -36.641219 77.715764 8.409351 -8.971132 -20.578697 -13.498359 18.398998 0.000000 0.000000 0.000000 -12.717028 -41.503122 -6.493311 0.000000 0.000000 0.000000 19.353532 6.923131 -7.538870 1.352513 1.057875 -0.608381 0.000000 0.000000 0.000000 1.352139 1.065433 -0.615882 5.139179 13.011482 -0.052975 0.000000 0.000000 0.000000 1.352139 1.065433 -0.615882 0.720596 3.654629 -7.622851 -53.440800 2.217202 -44.400287 -179.999896 -65.283153 -179.999896 0.000000 0.000000 0.000000 1.352139 1.065433 -0.615882 2.810633 14.537264 -6.138982 -46.080185 20.947456 84.878788 179.999991 65.647742 179.999991 0.000000 0.000000 0.000000 
5.396712 64.509842 37.129776 0.000000 0.000000 0.000000 -11.478427 -40.974810 -5.290307 -43.618155 1.680948 28.548890 46.882333 -7.319822 6.503199 1.081192 -11.097258 -26.027197 0.000000 0.000000 0.000000 -11.478427 -40.974810 -5.290307 -26.010440 -6.578503 -36.095132 75.780177 7.653141 -7.561120 -25.487124 -14.407574 18.040778 0.000000 0.000000 0.000000 -11.478427 -40.974810 -5.290307 0.000000 -0.000003 0.000000 17.618405 7.294563 -6.462695 1.638937 1.089193 -0.969847 0.000000 0.000000 0.000000 1.644419 1.086878 -0.970828 5.394268 12.949647 -0.475062 0.000000 0.000000 0.000000 1.644419 1.086878 -0.970828 0.718282 3.843460 -7.721461 -53.487375 1.962357 -44.508764 -179.999964 -65.275503 -179.999964 0.000000 0.000000 0.000000 1.644419 1.086878 -0.970828 2.691448 14.753629 -6.327798 -46.723050 20.456842 84.821578 -179.999964 65.667761 179.999964 0.000000 0.000000 0.000000 
4.896572 64.999054 35.638168 0.000000 0.000000 0.000000 -10.182163 -40.319939 -4.027456 -43.467761 1.798481 28.061562 44.453422 -7.384637 6.000327 0.884475 -10.983223 -26.351456 0.000000 0.000000 0.000000 -10.182163 -40.319939 -4.027456 -25.671828 -7.777800 -35.545831 73.835226 6.479619 -5.876361 -29.968872 -14.662680 16.103769 0.000000 0.000000 0.000000 -10.182163 -40.319939 -4.027456 0.000000 0.000002 0.000000 16.117735 7.450347 -5.573323 1.874576 1.097739 -1.317244 0.000000 0.000000 0.000000 1.886067 1.087217 -1.312156 5.491042 12.883364 -0.792213 0.000000 0.000000 0.000000 1.886067 1.087217 -1.312156 0.717232 3.924106 -7.764516 -54.024450 1.701621 -44.671175 -179.999937 -65.480477 -179.999937 0.000000 0.000000 0.000000 1.886067 1.087217 -1.312156 2.470814 14.861054 -6.589035 -47.485808 20.109950 84.599802 -179.999923 65.662625 179.999937 0.000000 0.000000 0.000000 
4.476919 65.588455 34.039806 0.000000 0.000000 0.000000 -8.959761 -39.655337 -2.756873 -43.654830 1.968098 27.180851 43.417245 -7.293461 5.391235 -0.296228 -10.632333 -25.817077 0.000000 0.000000 0.000000 -8.959761 -39.655337 -2.756873 -25.834508 -8.596258 -35.037901 72.261523 5.642869 -4.451226 -32.150097 -14.819687 15.491767 0.000000 0.000000 0.000000 -8.959761 -39.655337 -2.756873 0.000000 0.000003 0.000000 15.240836 7.420921 -5.179147 1.967295 1.088304 -1.565713 0.000000 0.000000 0.000000 1.983207 1.072292 -1.557290 5.421022 12.813664 -0.993684 0.000000 0.000000 0.000000 1.983207 1.072292 -1.557290 0.723257 3.882164 -7.755990 -54.923634 1.561687 -44.833737 -179.999937 -65.845093 -179.999923 0.000000 0.000000 0.000000 1.983207 1.072292 -1.557290 2.152830 14.844690 -6.922705 -48.169448 20.030583 84.273435 179.999964 65.558656 -179.999964 0.000000 0.000000 0.000000 
4.152197 66.338852 32.386047 0.000000 0.000000 0.000000 -7.923999 -39.004803 -1.676565 -44.196993 2.227712 25.898665 44.111978 -7.027916 4.805835 -2.470955 -10.263385 -23.868726 0.000000 0.000000 0.000000 -7.923999 -39.004803 -1.676565 -26.333156 -9.269537 -34.341156 70.908367 4.497197 -3.194773 -33.130925 -14.493216 14.650273 0.000000 0.000000 0.000000 -7.923999 -39.004803 -1.676565 0.000001 0.000000 0.000000 15.093997 7.232324 -5.181361 1.890070 1.066431 -1.668091 0.000000 0.000000 0.000000 1.907838 1.047430 -1.659999 5.208638 12.741143 -1.088781 0.000000 0.000000 0.000000 1.907838 1.047430 -1.659999 0.742646 3.717754 -7.713984 -56.055403 1.579854 -45.004509 179.999991 -66.385218 -179.999991 0.000000 0.000000 0.000000 1.907838 1.047430 -1.659999 1.776027 14.703106 -7.302539 -48.721536 20.233727 83.907310 179.999937 65.349911 -179.999923 0.000000 0.000000 0.000000 
3.961507 67.117760 30.847277 0.000000 0.000000 0.000000 -7.158265 -38.440011 -1.078151 -44.642246 2.582168 24.706244 46.084721 -6.748664 4.360066 -5.786429 -9.773717 -22.500221 0.000000 0.000000 0.000000 -7.158265 -38.440011 -1.078151 -26.993087 -9.717481 -33.545689 69.868655 3.625070 -2.114109 -32.679737 -13.910286 14.149857 0.000000 0.000000 0.000000 -7.158265 -38.440011 -1.078151 -0.000000 0.000001 0.000001 15.530991 7.007682 -5.232422 1.654679 1.039003 -1.595564 0.000000 0.000000 0.000000 1.671156 1.018849 -1.591335 4.899824 12.669916 -1.102677 0.000000 0.000000 0.000000 1.671156 1.018849 -1.591335 0.778497 3.450416 -7.660756 -57.280716 1.705998 -45.243402 179.999991 -67.155929 -179.999991 0.000000 0.000000 0.000000 1.671156 1.018849 -1.591335 1.407179 14.458426 -7.675428 -49.165928 20.636283 83.515366 -179.999991 65.084333 -179.999991 0.000000 0.000000 0.000000 
3.849790 68.018250 29.357939 0.000000 0.000000 0.000000 -6.567411 -37.994382 -0.825549 -44.840288 2.944153 23.607909 48.476308 -6.622218 3.960524 -8.367637 -9.592659 -21.852461 0.000000 0.000000 0.000000 -6.567411 -37.994382 -0.825549 -27.653858 -10.187849 -32.415880 68.782805 2.345078 -1.143172 -31.737376 -12.887675 12.984967 0.000000 0.000000 0.000000 -6.567411 -37.994382 -0.825549 0.000000 0.000001 0.000000 16.353940 6.712871 -5.355791 1.373369 1.001742 -1.412961 0.000000 0.000000 0.000000 1.387016 0.982567 -1.413533 4.544871 12.610612 -1.070823 0.000000 0.000000 0.000000 1.387016 0.982567 -1.413533 0.828001 3.119075 -7.611779 -58.617776 1.942437 -45.501535 -179.999841 -67.950690 -179.999855 0.000000 0.000000 0.000000 1.387016 0.982567 -1.413533 1.113465 14.164120 -7.979233 -49.589882 21.179780 83.157437 -180.000005 64.711828 179.999991 0.000000 0.000000 0.000000 
3.807405 68.961868 27.969969 0.000000 0.000000 0.000000 -6.036752 -37.763832 -0.862225 -44.896876 3.079359 22.820005 50.952221 -6.848201 3.633387 -8.963629 -9.654771 -23.019752 0.000000 0.000000 0.000000 -6.036752 -37.763832 -0.862225 -28.031050 -10.703899 -31.026718 67.263600 1.078893 -0.221317 -30.552806 -11.843134 11.877583 0.000000 0.000000 0.000000 -6.036752 -37.763832 -0.862225 0.000000 0.000000 0.000000 17.198421 6.416611 -5.422508 1.139648 0.958022 -1.172127 0.000000 0.000000 0.000000 1.150006 0.942647 -1.176507 4.183585 12.580093 -1.032532 0.000000 0.000000 0.000000 1.150006 0.942647 -1.176507 0.881781 2.775836 -7.570135 -60.050777 2.225970 -45.763149 179.999950 -68.667457 179.999964 0.000000 0.000000 0.000000 1.150006 0.942647 -1.176507 0.932305 13.896871 -8.170948 -50.091159 21.722370 82.845202 179.999991 64.292181 179.999991 0.000000 0.000000 0.000000 
3.813224 69.956108 26.652027 0.000000 0.000000 0.000000 -5.440401 -37.859534 -1.120039 -44.813923 3.139170 22.111836 53.788389 -6.987961 3.459304 -9.295459 -9.843308 -24.003127 0.000000 0.000000 0.000000 -5.440401 -37.859534 -1.120039 -28.463907 -11.254851 -29.244841 65.589050 -0.284642 0.596873 -29.268655 -10.519719 10.074363 0.000000 0.000000 0.000000 -5.440401 -37.859534 -1.120039 0.000000 0.000002 0.000000 17.942787 6.184984 -5.480066 0.945063 0.916704 -0.876163 0.000000 0.000000 0.000000 0.951747 0.908271 -0.883413 3.839367 12.597336 -1.023831 0.000000 0.000000 0.000000 0.951747 0.908271 -0.883413 0.926606 2.473423 -7.528972 -61.452127 2.547738 -45.946553 179.999964 -69.184489 179.999950 0.000000 0.000000 0.000000 0.951747 0.908271 -0.883413 0.862081 13.730915 -8.245999 -50.564843 22.193614 82.578961 -179.999937 63.850985 179.999923 0.000000 0.000000 0.000000 
3.855729 70.956642 25.385643 0.000000 0.000000 0.000000 -4.667344 -38.380619 -1.466222 -44.588902 3.142803 21.524416 56.664284 -7.070112 3.362568 -9.374752 -10.082953 -24.835603 0.000000 0.000000 0.000000 -4.667344 -38.380619 -1.466222 -29.093228 -11.630794 -27.336294 63.717175 -0.940326 1.224323 -27.066187 -9.427902 9.009808 0.000000 0.000000 0.000000 -4.667344 -38.380619 -1.466222 0.000000 -0.000003 0.000000 18.432124 6.069059 -5.584337 0.803026 0.886205 -0.554918 0.000000 0.000000 0.000000 0.805928 0.887244 -0.563997 3.529254 12.666087 -1.078871 0.000000 0.000000 0.000000 0.805928 0.887244 -0.563997 0.950623 2.249992 -7.478284 -62.793296 2.872558 -45.988685 -179.999923 -69.441427 -179.999909 0.000000 0.000000 0.000000 0.805928 0.887244 -0.563997 0.873351 13.710955 -8.236408 -50.982711 22.520565 82.380769 -179.999868 63.450285 179.999855 0.000000 0.000000 0.000000 
